<?xml version="1.0" encoding="UTF-8"?>
<svg id="Layer_1" data-name="Layer 1" xmlns="http://www.w3.org/2000/svg" viewBox="0 0 972 359">
  <defs>
    <style>
      .cls-1 {
        fill: none;
      }

      .cls-2 {
        fill: #010101;
      }

      .cls-3 {
        fill: #231f20;
      }

      .cls-4 {
        fill: #fff;
      }
    </style>
  </defs>
  <rect class="cls-2" x="9.1" y="260.4" width="953.9" height="90.47"/>
  <g>
    <g>
      <path class="cls-2" d="M300.92,16.42l12.72,28.46c.63,1.43,1.38,2.51,2.24,3.21s1.97,1.18,3.33,1.42c.34.06.5.31.5.78,0,.5-.21.74-.64.72-.24-.02-.6-.07-1.06-.16-1.44-.31-3.75-.46-6.94-.46s-5.39.14-6.55.43c-.28.08-.52.11-.73.11-.52,0-.78-.26-.78-.78,0-.26.2-.45.61-.58.9-.25,1.63-.71,2.22-1.36.59-.65.88-1.34.88-2.07,0-1.02-.81-3.25-2.42-6.7-.5-1.05-1.05-1.66-1.66-1.81-.6-.15-2.75-.23-6.42-.23h-3.79l-2.51.43c-.69.31-1.47,1.5-2.34,3.59l-.86,2.09c-.26.6-.39,1.2-.39,1.82,0,2.28,1.64,3.61,4.92,3.97.71.09,1.05.36,1.04.81-.04.48-.37.72-1.01.72-.34,0-.81-.06-1.43-.16-1.23-.24-2.33-.35-3.31-.35-.88,0-2.29.09-4.26.27-1.46.14-2.36.22-2.72.22-.52,0-.78-.22-.78-.67,0-.37.26-.65.78-.83,1.01-.31,1.81-.87,2.42-1.7.6-.83,1.5-2.56,2.7-5.21l7.63-17.15c.62-1.36,1.04-2.29,1.29-2.8l2.6-5.2,1.34-2.56v.08c.59-1.38,1-2.07,1.2-2.07.3,0,.81.76,1.54,2.29l.67,1.44ZM301.96,33.46l-3.65-8.32c-.87-1.99-1.5-2.99-1.87-2.99-.22,0-.63.64-1.23,1.93l-.53,1.14-3.26,7.26-.31.68c-.13.27-.2.51-.2.71,0,.62.67.92,2.01.92h8.25c.71,0,1.06-.19,1.06-.57,0-.09-.05-.25-.14-.46l-.14-.3Z"/>
      <path class="cls-2" d="M332.26,27.59c3,0,5.05.75,6.15,2.24.69.91,1.03,1.66,1.03,2.26s-.84,1.33-2.53,2.23l-1.18.65c-.21.11-.37.16-.48.16-.49,0-.76-.34-.82-1.03-.09-1.32-.61-2.45-1.54-3.4-.94-.95-2-1.42-3.18-1.42-1.54,0-2.83.72-3.86,2.16-1.04,1.44-1.56,3.23-1.56,5.36,0,3.31.77,6.03,2.3,8.16,1.53,2.13,3.49,3.19,5.87,3.19,2.06,0,4.18-.74,6.36-2.24l.34-.16c.3-.02.45.13.45.46,0,.65-.7,1.46-2.1,2.43-2.51,1.82-5.17,2.73-7.97,2.73-3.09,0-5.66-1.02-7.69-3.06-2.03-2.04-3.05-4.62-3.05-7.75,0-3.72,1.27-6.81,3.81-9.27,2.54-2.46,5.75-3.69,9.63-3.69Z"/>
      <path class="cls-2" d="M355.59,27.59c3,0,5.05.75,6.15,2.24.69.91,1.03,1.66,1.03,2.26s-.84,1.33-2.53,2.23l-1.18.65c-.21.11-.37.16-.48.16-.49,0-.76-.34-.82-1.03-.09-1.32-.61-2.45-1.54-3.4-.94-.95-2-1.42-3.18-1.42-1.54,0-2.83.72-3.86,2.16-1.04,1.44-1.56,3.23-1.56,5.36,0,3.31.77,6.03,2.3,8.16,1.54,2.13,3.49,3.19,5.87,3.19,2.06,0,4.18-.74,6.36-2.24l.33-.16c.3-.02.45.13.45.46,0,.65-.7,1.46-2.1,2.43-2.51,1.82-5.17,2.73-7.97,2.73-3.09,0-5.66-1.02-7.69-3.06-2.03-2.04-3.05-4.62-3.05-7.75,0-3.72,1.27-6.81,3.81-9.27,2.54-2.46,5.75-3.69,9.63-3.69Z"/>
      <path class="cls-2" d="M374.66,36.91v7.65c0,2.87,1.38,4.48,4.14,4.84.58.07.87.3.87.67,0,.46-.21.69-.64.69-.2,0-.47-.03-.78-.08-1.87-.27-3.79-.41-5.77-.41-1.04,0-1.99.04-2.83.11l-1.74.16c-.32.04-.64.05-.98.05-.52,0-.78-.24-.78-.72,0-.33.23-.56.7-.67,1.47-.34,2.21-1.69,2.21-4.05l-.03-1.14v-9.73c0-1.3-.17-2.17-.52-2.6-.34-.43-1.09-.68-2.22-.77-.43-.04-.64-.23-.64-.58,0-.41.25-.65.76-.72,2.56-.38,4.75-1.08,6.56-2.1l1.09-.63c.15-.09.29-.14.42-.14.28,0,.42.2.42.6,0,.13,0,.39-.03.79l-.08,1.53-.11,1.69.03.3c.07.25.21.39.42.41.18.02.59-.42,1.22-1.31.5-.69,1.27-1.43,2.31-2.22,1.04-.79,1.76-1.19,2.15-1.19.64,0,1.59.47,2.85,1.42,1.27.95,1.91,1.65,1.93,2.13,0,.16-.3.8-.9,1.91-.77,1.4-1.45,2.1-2.03,2.1-.24,0-.46-.09-.67-.27l-.78-.68c-.94-.85-2.03-1.28-3.25-1.28-2.18,0-3.27,1.41-3.27,4.24Z"/>
      <path class="cls-2" d="M400.87,37.6c.21-.83.31-1.54.31-2.13,0-1.82-.45-3.3-1.35-4.45-.9-1.15-2.05-1.73-3.45-1.73-1.79,0-2.69.72-2.69,2.17,0,.27.02.53.06.79l.08.52c0,1.23-1.44,1.84-4.33,1.84-.75,0-1.1-.32-1.07-.95,0-.13.05-.33.14-.6.06-.2.11-.44.17-.71.24-1.16.81-2.05,1.71-2.67,1.97-1.38,4.36-2.07,7.15-2.07,3.22,0,5.64.73,7.24,2.18,1.23,1.11,1.84,3.03,1.84,5.77,0,1.38-.06,3.11-.17,5.2-.11,2.39-.17,3.99-.17,4.79,0,1.87.76,2.8,2.29,2.8.54,0,.94-.06,1.2-.19.3-.13.51-.19.64-.19.26,0,.39.13.39.38,0,.45-.36.88-1.09,1.28l-1.09.55-.95.55c-.67.34-1.41.52-2.21.52-1.64,0-3.02-1.04-4.14-3.11-3.47,2.16-6.34,3.24-8.64,3.24-1.58,0-2.82-.45-3.72-1.34-.89-.89-1.34-2.13-1.34-3.71,0-2.88,1.28-4.97,3.85-6.28,1.58-.78,4.68-1.59,9.31-2.43ZM400.31,39.18c-1.6-.11-3.13.45-4.58,1.66-1.45,1.22-2.18,2.55-2.18,4.01,0,2.4.99,3.6,2.96,3.6,1.23,0,2.3-.28,3.21-.85.5-.29.85-.79,1.03-1.5.19-.71.28-1.88.28-3.52l.03-2.1v-.57l-.17-.6c-.09-.07-.29-.12-.59-.14Z"/>
    </g>
    <g>
      <path class="cls-2" d="M342.09,66.2c-.35.85-.79,2.12-.98,2.93-.09.17-.52.15-.59-.02.42-1.9-.13-2.93-2.38-2.93-1.55,0-3.58.48-5.6,2.45-1.09,1.09-2.58,3.65-2.58,6.53,0,3.1,1.46,4.79,4.24,4.79,2.27,0,3.65-1.33,4.7-3.06.22-.09.46-.04.52.15-.2.59-.68,1.75-1.42,3.08-.48,0-1.07.13-1.73.24-.63.11-1.36.26-2.12.26-2.84,0-6.12-1.29-6.12-5.88,0-2.54,1.33-4.96,3.12-6.58,1.84-1.66,4.48-2.67,7.34-2.67,1.7,0,3.04.48,3.58.7Z"/>
      <path class="cls-2" d="M348.58,70.85c.37-.18.94.04,1.07.33-.33.81-2.23,5.64-2.93,7.63-.13.37-.02.5.15.5.37,0,1-.37,2.25-1.46.15,0,.31.11.31.28-.92,1.22-2.47,2.45-3.67,2.45-.5,0-.63-.42-.63-.59,0-.15.04-.35.22-.85l.72-1.97-.07-.02c-1.55,1.92-3.78,3.43-4.81,3.43-.61,0-.96-.61-.96-1.22,0-.5.48-2.25,1.92-4.24,1.05-1.44,1.99-2.32,2.88-2.82.85-.48,1.4-.63,1.97-.63.24,0,.39.07.52.13.09.04.33.24.44.46l.61-1.4ZM344.78,73.35c-1.4,1.25-2.73,4.11-2.73,5.66,0,.26.13.42.33.42.22,0,.87-.28,2.12-1.42,1.66-1.55,2.58-3.43,2.93-4.72-.15-.42-.52-.79-1.09-.79-.52,0-.88.24-1.55.85Z"/>
      <path class="cls-2" d="M355.2,71.71c.17,0,.42-.04.83-.04,1.01,0,2.97.42,2.97,2.49s-1.22,3.78-2.89,5.18c-1.38,1.16-3.04,1.25-3.13,1.25-.2,0-.37-.04-.68-.13-.18.04-.28.17-.35.39l-.9,2.58c-.59,1.68-.55,1.88.17,1.99l.9.13c.11.15.11.39-.09.48-1.66,0-3.3.09-4.77.13-.15-.13-.15-.35,0-.48l.48-.09c1.22-.22,1.31-.72,1.64-1.62l4.07-11.41c-.79.22-1.29.44-2.21.9-.17-.02-.28-.22-.22-.42.77-.55,1.64-.92,2.71-1.2l.66-1.77c.28-.24,1.16-.02,1.25.31l-.46,1.33ZM352.76,78.75c-.09.24-.06.46.02.59.13.22.46.5.81.5.28,0,1.51-.31,2.45-1.77,1.05-1.62,1.29-3.15,1.29-4.11,0-1.09-.79-1.64-1.73-1.64-.24,0-.42.02-.57.04l-2.27,6.38Z"/>
      <path class="cls-2" d="M363.2,73.17c.11-.24.11-.41-.04-.41s-.72.26-1.81,1.16c-.2-.02-.33-.2-.28-.37,1.2-1.38,2.88-2.19,3.61-2.19.15,0,.26.13.35.22.13.13.13.33-.13.96l-2.6,6.21c-.09.22-.11.48.07.48.37,0,1.53-.76,2.27-1.62.22.02.33.17.33.37-.33.63-2.58,2.6-4.09,2.6-.11,0-.24-.07-.35-.2-.13-.15-.2-.35-.09-.59l2.78-6.62ZM365.8,67.69c0,.68-.48,1.36-1.14,1.36-.57,0-.77-.44-.77-.81,0-.48.31-1.38,1.16-1.38.5,0,.74.35.74.83Z"/>
      <path class="cls-2" d="M370.41,72.52l-2.03,5.94c-.13.42-.02.55.15.55.33,0,1.77-1.14,2.49-1.97.22,0,.35.13.31.39-1.22,1.81-3.28,3.15-4.2,3.15-.31,0-.59-.33-.59-.59,0-.28.09-.59.31-1.25l2.12-6.23h-1.7c-.04-.22.02-.52.24-.61l1.75-.31,1.22-2.16c.22-.13.65-.09.83.13l-.63,2.14h2.38c.15.22.02.66-.26.81h-2.38Z"/>
      <path class="cls-2" d="M380.36,70.85c.37-.18.94.04,1.07.33-.33.81-2.23,5.64-2.93,7.63-.13.37-.02.5.15.5.37,0,1.01-.37,2.25-1.46.15,0,.31.11.31.28-.92,1.22-2.47,2.45-3.67,2.45-.5,0-.63-.42-.63-.59,0-.15.04-.35.22-.85l.72-1.97-.07-.02c-1.55,1.92-3.78,3.43-4.81,3.43-.61,0-.96-.61-.96-1.22,0-.5.48-2.25,1.92-4.24,1.05-1.44,1.99-2.32,2.88-2.82.85-.48,1.4-.63,1.97-.63.24,0,.39.07.52.13.09.04.33.24.44.46l.61-1.4ZM376.56,73.35c-1.4,1.25-2.73,4.11-2.73,5.66,0,.26.13.42.33.42.22,0,.87-.28,2.12-1.42,1.66-1.55,2.58-3.43,2.93-4.72-.15-.42-.52-.79-1.09-.79-.52,0-.87.24-1.55.85Z"/>
      <path class="cls-2" d="M383.96,78.85c-.17.5-.15.72.09.72.48,0,1.51-1.07,2.51-2.21.22-.02.35.09.35.31-.57,1.09-1.95,2.91-3.76,2.91-.66,0-.85-.31-.85-.65s.11-.74.48-1.86l3.48-10.34c.52-1.53.31-1.75-.02-1.9l-.39-.18c-.11-.09-.11-.28,0-.35.39-.15,1.75-.57,2.75-.66l.11.13c-.28.79-.5,1.4-1.29,3.76l-3.45,10.32Z"/>
      <path class="cls-2" d="M400.77,74.11c-.07,1.2-.7,3.3-2.32,4.96-1.35,1.4-2.54,1.51-3.13,1.51-1.4,0-2.32-1.03-2.19-2.91.09-1.35.9-3.48,2.38-4.9,1.14-1.09,2.12-1.42,3.02-1.42,1.55,0,2.32,1.16,2.23,2.75ZM396.79,73.06c-1.27,1.71-2.12,4.31-2.19,5.46-.04.76.26,1.4.9,1.4.48,0,1.03-.2,1.73-1.14.96-1.29,1.99-4.17,2.03-5.33.02-.68-.11-1.44-.87-1.44-.44,0-.96.2-1.6,1.05Z"/>
      <path class="cls-2" d="M406.01,72.47c-.13.37-.31,1.07-.57,2.03-.66,2.45-1.25,4.55-1.95,6.95-.57,1.97-1.29,3.08-1.73,3.52-.33.31-1.33,1.18-2.62,1.18-1.18,0-1.6-.74-1.6-1.07,0-.44.26-.81.5-.98.18-.13.37-.07.5.09.52.55,1.18.9,1.66.9.44,0,.9-.15,1.4-1.84,1.01-3.45,1.77-7.21,2.82-10.78h-1.81c-.22-.2-.13-.61.15-.81h1.88c.57-1.97,1.16-3.67,2.45-5.2,1.09-1.29,2.23-1.81,3.5-1.81.81,0,1.68.57,1.68,1.44,0,.57-.59,1.25-.94,1.25-.2,0-.28-.2-.31-.35-.07-1.2-.68-1.6-1.22-1.6-.48,0-1.07.44-1.57,1.18-1.01,1.46-1.44,3.02-2.03,5.09h2.73c.15.24.11.57-.22.81h-2.71Z"/>
      <path class="cls-2" d="M424.04,76.52c.5-1.6.52-1.9-.79-2.08l-.85-.11c-.15-.13-.13-.46.04-.55.96.04,1.7.07,2.62.07s1.97-.02,2.49-.07c.15.09.17.44-.02.55l-.37.11c-.83.24-.92.33-1.46,2.08l-.68,2.16c-.09.28-.04.52.17.66.02.09,0,.22-.09.31-1.51.52-3.43.98-4.59.98-3.87,0-6.16-2.12-6.16-5.68,0-2.12.9-4.74,3.15-6.71,2.1-1.84,4.57-2.73,7.61-2.73,1.86,0,3.23.48,3.74.7-.37.79-.81,2.06-1.03,2.91-.09.17-.48.15-.55-.02.39-2.01-.31-2.91-2.43-2.91-2.58,0-4.28.98-5.73,2.34-1.57,1.46-2.84,4.39-2.84,6.88,0,3.48,2.14,4.55,4.33,4.55,1.53,0,2.4-.22,2.86-1.64l.57-1.79Z"/>
      <path class="cls-2" d="M434.62,64.78c-.44,1.22-1.14,3.21-1.57,4.46l-2.25,6.54.04.04c1.53-2.16,2.67-3.04,3.45-3.61.79-.57,1.49-.85,2.08-.85.96,0,1.31.7,1.31,1.47,0,1.51-.92,3.71-1.71,5.11-.42.74-.85,1.22-1.42,1.79-.72.72-1.31.85-1.6.85-.72,0-.81-.46-.81-.63,0-.37.31-.7.59-.7.09,0,.2.04.31.13.17.13.41.28.57.28.33,0,.55-.33.87-1.09.59-1.42,1.57-4.44,1.57-5.64,0-.41-.15-.66-.46-.66s-.77.26-1.18.59c-.92.7-1.64,1.42-2.78,2.91-.98,1.31-2.08,3.43-2.64,4.55-.09.18-.2.26-.39.26-.24,0-.81-.07-.63-.57l4.15-12.28c.48-1.44.59-1.75.24-1.99l-.46-.31c-.04-.11-.04-.2.07-.28.35-.15,1.79-.46,2.56-.5l.09.13Z"/>
      <path class="cls-2" d="M446.42,70.85c.37-.18.94.04,1.07.33-.33.81-2.23,5.64-2.93,7.63-.13.37-.02.5.15.5.37,0,1.01-.37,2.25-1.46.15,0,.31.11.31.28-.92,1.22-2.47,2.45-3.67,2.45-.5,0-.63-.42-.63-.59,0-.15.04-.35.22-.85l.72-1.97-.07-.02c-1.55,1.92-3.78,3.43-4.81,3.43-.61,0-.96-.61-.96-1.22,0-.5.48-2.25,1.92-4.24,1.05-1.44,1.99-2.32,2.88-2.82.85-.48,1.4-.63,1.97-.63.24,0,.39.07.52.13.09.04.33.24.44.46l.61-1.4ZM442.62,73.35c-1.4,1.25-2.73,4.11-2.73,5.66,0,.26.13.42.33.42.22,0,.87-.28,2.12-1.42,1.66-1.55,2.58-3.43,2.93-4.72-.15-.42-.52-.79-1.09-.79-.53,0-.87.24-1.55.85Z"/>
      <path class="cls-2" d="M451.21,76.08l.07.04c1.55-2.36,3.72-4.76,5.35-4.76.85,0,1.22.46,1.22,1.18,0,.35-.17,1.03-.35,1.53-.39,1.09-1.97,4.66-2.03,4.83-.09.22-.11.42.04.42.37,0,1.42-.72,2.05-1.49.31-.04.35.13.35.31-.83,1.4-2.56,2.45-3.76,2.45-.2,0-.53-.28-.53-.55,0-.2.07-.35.53-1.44.46-1.07,1.27-3.21,1.77-4.31.18-.39.46-1.16.46-1.59,0-.26-.02-.52-.35-.52-.52,0-1.81,1.09-3.02,2.6-1.16,1.44-2.05,3.15-3.34,5.55-.11.2-.2.26-.39.26-.24,0-.83-.07-.63-.57.11-.28,2.43-6.58,2.54-6.88.11-.28.11-.5-.07-.5-.5,0-1.27.46-1.99,1.09-.17,0-.28-.15-.26-.33.83-1.14,2.16-2.03,3.26-2.03.53,0,.77.39.57.9l-1.49,3.83Z"/>
      <path class="cls-2" d="M467.08,70.85c.37-.18.94.04,1.07.33-.33.81-2.23,5.64-2.93,7.63-.13.37-.02.5.15.5.37,0,1-.37,2.25-1.46.15,0,.31.11.31.28-.92,1.22-2.47,2.45-3.67,2.45-.5,0-.63-.42-.63-.59,0-.15.04-.35.22-.85l.72-1.97-.07-.02c-1.55,1.92-3.78,3.43-4.81,3.43-.61,0-.96-.61-.96-1.22,0-.5.48-2.25,1.92-4.24,1.05-1.44,1.99-2.32,2.88-2.82.85-.48,1.4-.63,1.97-.63.24,0,.39.07.52.13.09.04.33.24.44.46l.61-1.4ZM463.27,73.35c-1.4,1.25-2.73,4.11-2.73,5.66,0,.26.13.42.33.42.22,0,.87-.28,2.12-1.42,1.66-1.55,2.58-3.43,2.93-4.72-.15-.42-.52-.79-1.09-.79-.52,0-.88.24-1.55.85Z"/>
    </g>
  </g>
  <path class="cls-2" d="M962.75,262l-1.52-11.94-11.18-2.65v-4.36c.95,0,4.36-2.09,4.36-2.09,6.82-1.52,7.01-12.89,7.01-12.89l-80.74-65.2-.45.78-.88-.59-77.33,67.47s-.76,12.13,11.56,14.97l.57,1.32v3.41l-10.99,2.46-.38,4.36,3.22.19,1.14,6.63h1.89l1.33-5.12s0-1.33,1.9-1.71l2.27-.38-.57,7.2,10.61.76.38-6.25-.19-.95-7.58-.76s-.38-1.52-.95-1.52h14.22v9.66l51.17.38v-.21s52.87-1.5,52.87-1.5l-.76-12.7,15.16,1.71c-1.33.19-1.9,2.08-1.9,2.08,0,0-5.87.38-7.01.38s-.76,1.71-.76,1.71l.57,4.93,11.37-.19-.95-7.2,3.22.19,1.71,4.55v2.65l7.58.38ZM822.69,247.98l-4.74,1.32.38-2.08h4.36v.76ZM940.58,245.89s4.93-1.14,5.5-1.52l.57,2.65-6.06-1.14Z"/>
  <g>
    <g>
      <polygon class="cls-2" points="461.66 188.78 461.66 186.86 460.97 186.86 460.97 186.31 460.01 185.76 459.74 174.77 461.11 172.99 459.6 172.85 459.6 171.34 418.67 171.06 418.53 170.51 411.12 170.51 372.53 170.51 365.11 170.51 364.97 171.06 324.04 171.34 324.04 172.85 322.53 172.99 323.91 174.77 323.63 185.76 322.67 186.31 322.67 186.86 321.98 186.86 321.98 188.78 316.08 188.92 317.04 190.7 317.04 191.66 322.53 196.06 322.4 200.87 322.81 201.28 321.71 255.25 320.61 255.66 320.61 258.69 320.47 261.84 358.79 262.26 358.65 255.94 358.1 255.39 359.06 208.28 359.2 207.73 364.97 207.87 364.83 255.8 364.56 256.21 364.56 260.88 374.45 260.74 374.45 258.96 374.45 256.21 373.9 255.8 374.45 207.87 391.82 207.62 409.19 207.87 409.74 255.8 409.19 256.21 409.19 258.96 409.19 260.74 419.08 260.88 419.08 256.21 418.81 255.8 418.67 207.87 424.44 207.73 424.58 208.28 425.54 255.39 424.99 255.94 424.85 262.26 463.17 261.84 463.03 258.69 463.03 255.66 461.93 255.25 460.83 201.28 461.25 200.87 461.11 196.06 466.6 191.66 466.6 190.7 467.56 188.92 461.66 188.78"/>
      <g>
        <polygon class="cls-4" points="410.98 166.12 410.57 165.98 410.57 164.61 404.94 164.47 405.35 150.46 404.66 150.46 404.39 144.83 398.21 150.46 391.82 150.59 385.43 150.46 379.26 144.83 378.98 150.46 378.29 150.46 378.71 164.47 373.07 164.61 373.07 165.98 372.66 166.12 372.53 170.51 411.12 170.51 410.98 166.12"/>
        <path class="cls-2" d="M411.48,170.87h-39.32l.16-5.01.4-.13v-1.46l5.62-.14-.41-14.02h.72l.29-6.05,6.64,6.05,6.25.12,6.24-.12,6.64-6.05.29,6.05h.71l-.41,14.02,5.62.14v1.46l.4.13.16,5.01ZM372.89,170.16h37.86l-.12-3.78-.42-.14v-1.28l-5.64-.14.41-14h-.66l-.25-5.22-5.72,5.21-6.52.13-6.53-.13-5.72-5.21-.25,5.22h-.66l.41,14-5.64.14v1.28l-.42.14-.12,3.78Z"/>
      </g>
    </g>
    <polygon class="cls-2" points="383.79 164.61 386.4 156.78 378.29 150.46 388.73 150.46 391.89 140.99 394.91 150.19 405.35 150.46 397.11 156.37 400.13 164.47 399.31 164.61 391.75 159.8 384.75 164.61 383.79 164.61"/>
    <path class="cls-4" d="M457.67,210.52c-1.23,0-2.24-1-2.24-2.24s1.01-2.24,2.24-2.24,2.24,1,2.24,2.24-1,2.24-2.24,2.24ZM457.67,206.4c-1.04,0-1.88.84-1.88,1.88s.84,1.88,1.88,1.88,1.88-.84,1.88-1.88-.84-1.88-1.88-1.88Z"/>
    <path class="cls-4" d="M434.05,210.52c-1.23,0-2.24-1-2.24-2.24s1-2.24,2.24-2.24,2.24,1,2.24,2.24-1,2.24-2.24,2.24ZM434.05,206.4c-1.04,0-1.88.84-1.88,1.88s.84,1.88,1.88,1.88,1.88-.84,1.88-1.88-.84-1.88-1.88-1.88Z"/>
    <path class="cls-4" d="M415.38,210.52c-1.23,0-2.24-1-2.24-2.24s1-2.24,2.24-2.24,2.24,1,2.24,2.24-1,2.24-2.24,2.24ZM415.38,206.4c-1.04,0-1.88.84-1.88,1.88s.84,1.88,1.88,1.88,1.88-.84,1.88-1.88-.85-1.88-1.88-1.88Z"/>
    <path class="cls-4" d="M367.99,210.38c-1.23,0-2.24-1-2.24-2.24s1-2.24,2.24-2.24,2.24,1,2.24,2.24-1,2.24-2.24,2.24ZM367.99,206.26c-1.04,0-1.88.84-1.88,1.88s.84,1.88,1.88,1.88,1.88-.84,1.88-1.88-.84-1.88-1.88-1.88Z"/>
    <path class="cls-4" d="M349.73,210.79c-1.23,0-2.24-1-2.24-2.24s1-2.24,2.24-2.24,2.24,1,2.24,2.24-1,2.24-2.24,2.24ZM349.73,206.67c-1.04,0-1.88.84-1.88,1.88s.84,1.88,1.88,1.88,1.88-.84,1.88-1.88-.84-1.88-1.88-1.88Z"/>
    <path class="cls-4" d="M326.24,210.52c-1.23,0-2.24-1-2.24-2.24s1-2.24,2.24-2.24,2.24,1,2.24,2.24-1,2.24-2.24,2.24ZM326.24,206.4c-1.04,0-1.88.84-1.88,1.88s.85,1.88,1.88,1.88,1.88-.84,1.88-1.88-.84-1.88-1.88-1.88Z"/>
  </g>
  <g>
    <path class="cls-2" d="M774.24,217.38c-5.59-18.49-8.08-68.51-8.08-68.51l-11.03-.31-.47.78-.78,15.53c-3.88,6.52-9.01.31-9.01.31l-.31-16.15h-1.09v-.62l-5.28-.31-.16,4.82h-5.44l-.31-4.66-5.28-.15-.93.62-.31,15.69c-.62,1.4-3.11,2.8-3.11,2.8-2.02.93-4.66-.78-4.66-.78v-11.65h-1.24l.15-2.02-.93-.47-.16-3.57h-11.65c-3.26,45.67-7.14,58.72-7.14,58.72-8.08,40.23-30.14,45.51-30.14,45.51l6.37,7.77,25.48.62v-17.24l.16-.93c5.12-5.9,7.14.78,7.14.78v17.4l9.01.15v-2.63c1.09-2.64,2.95-2.95,2.95-2.95l-.47,2.95-.62.31-.1,2.35,27.13.44v-3.26c1.24-2.95,4.66-2.64,4.66-2.64,2.8,0,4.2,2.95,4.2,2.95l-.16,2.95,9.16.16.16-17.09.31-.93c4.97-6.06,7.3.93,7.3.93v17.4l22.99.46,8.08-7.92c-18.8-7.3-26.41-37.59-26.41-37.59ZM718.78,250.63c-1.86-.93-3.11-2.64-3.11-2.64l3.88.15-.78,2.49ZM725.46,202.47l-7.46-.15-.16-21.28s.62-3.57,4.66-3.73c0,0,2.8.62,3.11,1.24l-.16,23.92ZM737.42,201.23h-3.88v-34.49h3.88v34.49ZM736.09,157.54l.52,1.6-1.36-.99-1.36.99.52-1.6-1.36-.98h1.68l.52-1.6.52,1.6h1.68l-1.36.98ZM744.57,248.61l7.61.16s-3.11,4.5-7.61-.16ZM753.73,202.94h-8.86l-.16-21.28s.62-3.52,4.58-3.72c-.03,0-.05,0-.08,0h.16s-.05,0-.08,0c3.97.2,4.58,3.72,4.58,3.72l-.15,21.28Z"/>
    <path class="cls-4" d="M753.89,224.53h-10.1v-1.24h10.1v1.24ZM753.89,225.77h-10.1v1.24h10.1v-1.24ZM753.89,228.26h-10.1v1.24h10.1v-1.24ZM753.89,230.74h-10.1v1.24h10.1v-1.24ZM753.89,233.23h-10.1v1.24h10.1v-1.24ZM753.89,235.71h-10.1v1.24h10.1v-1.24ZM753.89,238.2h-10.1v1.24h10.1v-1.24ZM753.89,240.68h-10.1v1.24h10.1v-1.24ZM753.89,243.17h-10.1v1.24h10.1v-1.24ZM753.89,245.66h-10.1v1.24h10.1v-1.24Z"/>
    <g>
      <rect class="cls-4" x="714.98" y="230.74" width="10.1" height="1.24"/>
      <rect class="cls-4" x="714.98" y="228.26" width="10.1" height="1.24"/>
      <rect class="cls-4" x="714.98" y="223.29" width="10.1" height="1.24"/>
      <rect class="cls-4" x="714.98" y="233.23" width="10.1" height="1.24"/>
      <rect class="cls-4" x="714.98" y="225.77" width="10.1" height="1.24"/>
      <rect class="cls-4" x="714.98" y="243.17" width="6.29" height="1.24"/>
      <rect class="cls-4" x="714.98" y="235.71" width="10.1" height="1.24"/>
      <polygon class="cls-4" points="720.33 245.66 714.98 245.66 714.98 246.9 719.95 246.9 720.33 245.66"/>
      <rect class="cls-4" x="714.98" y="240.68" width="6.29" height="1.24"/>
      <rect class="cls-4" x="714.98" y="238.2" width="10.1" height="1.24"/>
    </g>
  </g>
  <g>
    <path class="cls-2" d="M648.92,217.67l5.89-.26-.8-4.02,10.44-.8-.8-7.76,2.95-2.14-1.34-4.82-6.42,2.94h-4.02l-1.87-.27-.8-4.82-.54-2.14,11.51-11.24v-1.87l-.8-1.07-.54-1.07-1.07.27v-1.07l-39.35-.8s-25.7-35.07-52.2-35.6l-.94.19-.94-.19c-26.5.54-52.2,35.6-52.2,35.6l-39.35.8v1.07l-1.07-.27-.54,1.07-.8,1.07v1.87l11.51,11.24-.53,2.14h-1.87l-.8,5.09h-4.02l-6.42-2.94-1.34,4.82,2.95,2.14-.8,7.76,10.44.8-.8,4.02,5.89.26c-14.19,25.7-19.54,44.44-19.54,44.44l40.69-1.61s1.07-13.65,2.14-17.67l1.07.27h1.34l1.87.54,7.23.54-.54,18.2,9.91-1.07.8-16.6,20.34.27-.27,19.54h3.75l.27-19.54h23.29l.27,19.54h3.75l-.27-19.54,20.34-.27.8,16.6,9.9,1.07-.53-18.2,7.23-.54,1.88-.54h1.34l1.07-.27c1.07,4.02,2.14,17.67,2.14,17.67l40.69,1.61s-5.35-18.74-19.54-44.44ZM568.21,145.67c20.84-.14,42.96,30.52,42.96,30.52l-1.87.27c-21.46-23.71-36.81-24.75-41.09-24.5-4.28-.25-19.64.78-41.09,24.5l-1.88-.27s22.12-30.65,42.97-30.52ZM568.21,160.72c-4.45-.12-15.95,1.24-30.65,15.73h-2.14s14.42-19.8,31.59-20.39v.04c.4-.03.8-.04,1.2-.05.4,0,.8.02,1.2.05v-.04c17.17.59,31.59,20.39,31.59,20.39h-2.14c-14.7-14.49-26.2-15.85-30.65-15.73ZM592.17,176.18l-23.96.23-23.96-.23s10.46-11.18,23.96-12c13.5.82,23.96,12,23.96,12ZM618.67,230.53l-4.28-1.34-29.98.27-.27,3.21h-3.21l.27-3.21h-25.97l.27,3.21h-3.21l-.27-3.21-29.98-.27-4.29,1.34.8-5.35-2.68-1.61,1.61-1.87,50.73-.25,50.73.25,1.61,1.87-2.68,1.61.8,5.35Z"/>
    <g>
      <path class="cls-4" d="M585.48,216.61s-2.47-2.86-6.74-4.99l-3.92-14.98-1.16.3,3.67,14.03c-2.52-1.05-5.54-1.77-8.98-1.6,0,0-3.8-.73-10.01,2.13l3.37-14.85-1.18-.27-3.58,15.8c-1.83.95-3.84,2.21-6,3.87h5.12l-4.64,20.48,1.18.27,4.7-20.75h4.35l13.38-.27,3.62.28,5.43,20.75,1.16-.31-5.33-20.35,5.55.43Z"/>
      <path class="cls-3" d="M560.53,196.39l1.18.27-3.37,14.85c4.11-1.9,7.17-2.22,8.76-2.22.81,0,1.24.08,1.24.08.35-.02.69-.03,1.03-.03,3.01,0,5.68.68,7.95,1.62l-3.67-14.03,1.16-.3,3.92,14.98c4.27,2.13,6.74,4.99,6.74,4.99l-5.55-.43,5.33,20.35-1.16.31-5.43-20.75-3.62-.28-13.38.27h-4.35l-4.7,20.75-1.18-.27,4.64-20.48h-5.12c2.16-1.66,4.17-2.92,6-3.87l3.58-15.8M559.93,195.43l-.18.78-3.5,15.44c-1.92,1.03-3.87,2.29-5.79,3.77l-1.87,1.44h6.48l-4.42,19.5-.18.78.78.18,1.18.27.78.18.18-.78,4.56-20.12h3.71l13.36-.27,3.01.23,5.29,20.2.2.78.78-.2,1.17-.31.78-.2-.2-.78-5.04-19.26,4.42.34,1.94.15-1.27-1.48c-.1-.12-2.5-2.86-6.66-5.01l-3.83-14.63-.2-.78-.78.2-1.16.31-.78.2.2.78,3.28,12.52c-2.22-.75-4.49-1.13-6.77-1.13-.33,0-.66,0-.99.02-.19-.03-.63-.08-1.29-.08-1.36,0-4.05.23-7.63,1.66l3.02-13.31.18-.78-.78-.18-1.18-.27-.78-.18h0Z"/>
    </g>
  </g>
  <path class="cls-2" d="M293.51,171.2c-4.13-8.8-8.83-13.02-12.67-15.32-2.59-1.56-5.72-1.9-7.47-1.96v-.08c-20.11-.47-29.75,51.96-29.75,51.96-6.6,28.79-9.23,55.83-9.23,55.83l12.27.46,5.17-1.02c1.31-31.68,4.58-50.6,4.58-50.6,5.38-39.5,8.98-45.58,8.98-45.58,3.32-5.82,8.69-5.08,8.69-5.08v-.05c4.6.35,6.34,3.8,6.34,3.8,3.6,4.72,8.17,30.82,8.17,30.82,7.46,35.52,7.75,67.8,7.75,67.8l20.13-.2c-13.73-63.03-18.84-81.99-22.97-90.78Z"/>
  <g>
    <g>
      <g>
        <polygon class="cls-2" points="232.71 203.43 232.71 200.89 198.91 200.89 198.91 205.64 200.25 206.64 200.25 207.98 202.25 208.98 143.59 209.1 140.07 209.1 140.07 212.62 68.93 212.62 68.93 206.95 70.1 206.95 70.1 205.97 69.12 205.97 69.12 203.24 70.3 203.24 73.23 201.68 73.23 199.33 74.79 199.13 56.81 189.95 40 185.06 4.04 190.54 5.8 190.93 5.8 193.66 8.15 196.01 10.1 196.01 10.1 199.53 8.54 199.53 8.54 200.89 9.12 201.48 9.12 260.7 230.95 260.7 230.95 237.44 231.93 236.27 230.37 235.88 230.37 207.15 232.71 203.43"/>
        <path class="cls-2" d="M195.53,161.03l-3.3-39.03c-3.42-3.23-9.45-6.29-20.01-6.13-11.87.18-18.5,3.27-22.1,6.08l-1.33,39.86c8.43-3.91,23.77-4.55,23.77-4.55,13.71,0,20.06,1.88,22.98,3.78Z"/>
        <g>
          <path class="cls-4" d="M192.22,122l-.95-11.2s2.15-2.93-.39-5.47l-1.56-18.76s4.69-2.74,4.69-7.62v-2.02c-2.97-3.98-9.81-8.78-25.47-7.77,0,0-16.23.42-21.74,9.97l-.08,2.37s1.17,4.3,4.3,6.45v18.37s-2.93,2.35-.59,6.25l-.31,9.39c3.59-2.81,10.23-5.9,22.1-6.08,10.56-.16,16.59,2.9,20.01,6.13Z"/>
          <path class="cls-3" d="M193.1,123.81l-1.37-1.29c-4.17-3.94-10.48-5.94-18.73-5.94h-.78c-11.87.19-18.34,3.33-21.67,5.93l-1.21.95.36-10.72c-1.8-3.17-.53-5.66.59-6.76v-17.68c-3.07-2.33-4.23-6.45-4.28-6.63l-.03-.1.09-2.66.09-.16c5.65-9.78,21.67-10.31,22.35-10.32,1.39-.09,2.77-.14,4.09-.14,13.11,0,19.19,4.46,21.97,8.2l.14.19v2.26c0,4.43-3.47,7.18-4.66,7.99l1.51,18.08c1.98,2.17,1.23,4.72.43,5.98l1.08,12.83ZM147.44,81.39c.19.63,1.37,4.15,3.99,5.95l.31.21v19.1l-.27.22c-.1.08-2.4,2.02-.42,5.32l.11.18-.27,8.14c3.77-2.52,10.33-5.19,21.32-5.36h.8c7.79,0,13.96,1.73,18.36,5.16l-.82-9.73.16-.22c.07-.1,1.74-2.48-.32-4.54l-.19-.19-1.62-19.48.39-.23s4.33-2.6,4.33-7v-1.78c-2.65-3.44-8.39-7.43-20.68-7.43-1.29,0-2.65.04-4.03.13-.19,0-15.75.52-21.08,9.46l-.07,2.07Z"/>
        </g>
        <g>
          <path class="cls-4" d="M200.25,207.98v-1.33l-1.34-1v-4.75h-.01l-3.37-39.86c-2.92-1.9-9.27-3.78-22.98-3.78,0,0-15.34.65-23.77,4.55l-1.48,44.17-1.76.2.19,1.95-2.15.98,58.66-.13-2-1Z"/>
          <path class="cls-3" d="M140.26,209.83l4.72-2.14-.21-2.15,1.85-.21,1.47-43.99.4-.19c8.46-3.92,23.41-4.59,24.04-4.62h0c11.56,0,19.42,1.31,23.39,3.9l.29.19,3.41,40.27v4.39l1.34,1v1.25l4.32,2.16-65.02.14ZM146.33,206.81l.16,1.57,53.04-.12v-1.26l-1.34-1v-5.04s-3.35-39.5-3.35-39.5c-2.72-1.63-8.79-3.48-22.29-3.48-.12,0-14.78.67-23.06,4.31l-1.48,44.35-1.67.19Z"/>
        </g>
        <path class="cls-1" d="M160.62,62.68l-.03-.36-.3-.42c-2.27.46-4.11,1.06-5.6,1.72v2.38c1.64-.8,3.6-1.56,5.93-2.16v-1.17Z"/>
        <path class="cls-1" d="M153.19,69.95v-1.95c-.29.17-.56.35-.81.52-1.08.73-1.93,1.44-2.57,2.06v1.77c1.12-.89,2.43-1.69,3.74-2.4h-.36Z"/>
        <path class="cls-1" d="M173.69,53.73c.55,0,1.28.17,1.9.36l.17-.84-2.07-.5s-1.17.98,0,.98Z"/>
        <path class="cls-1" d="M160.62,64.9c-2.4.65-4.36,1.45-5.93,2.26v2.21c2.6-1.28,5.04-2.13,5.93-2.43v-2.04Z"/>
        <path class="cls-1" d="M153.19,64.37c-1.62.91-2.68,1.88-3.38,2.74v2.08c.87-.75,1.98-1.58,3.38-2.39v-2.43Z"/>
        <path class="cls-1" d="M190.33,66.37c-.84-.91-1.91-1.72-3.19-2.42v1.87c1.29.7,2.35,1.46,3.19,2.21v-1.65Z"/>
        <path class="cls-1" d="M192.3,70.14c-.1-.51-.26-1.01-.46-1.48v1c.12.16.23.33.32.49h.14Z"/>
        <path class="cls-1" d="M185.22,67.8c.15.08.28.17.42.25v-1.88c-.48-.22-.98-.44-1.52-.65l1.1,2.28Z"/>
        <path class="cls-1" d="M182.68,62.52l.82,1.71c.76.26,1.48.54,2.14.84v-1.86c-1.75-.76-3.8-1.34-6.1-1.74v.07s3.14.98,3.14.98Z"/>
        <path class="cls-1" d="M190.33,69.37c-.76-.8-1.82-1.63-3.19-2.42v2.03c1.25.81,2.31,1.57,3.19,2.28v-1.88Z"/>
        <path class="cls-1" d="M148.31,70.67v-.54c-.06.26-.09.48-.1.66.03-.04.07-.08.1-.12Z"/>
        <path class="cls-2" d="M168.54,69.15c15.67-1,22.51,3.79,25.47,7.77v-2.08s-.37-.52-1.2-1.37v-3.32l.49-.09c-.23-1.23-.73-2.37-1.47-3.4v-.42h-.33c-1.06-1.31-2.54-2.44-4.36-3.37v-.34h-.7c-1.99-.91-4.36-1.61-7.02-2.06l-.06-.48.98-.98s-1.46-2.92-3.33-4.35l.21-1.06,1.36.33-3.13-3.13-8.4-1.17.98,1.56s-1.76,1.37-1.76,2.93c0,0-8.4,2.15-6.65,6.84l.04.06c-2.16.46-3.95,1.04-5.43,1.7h-1.04v.5c-2.29,1.18-3.72,2.54-4.6,3.8h-.29v.44c-1.25,2.05-1.13,3.76-1.12,3.91l.58-.05c-.32.41-.48.68-.51.73l.86.51s.06-.11.19-.27v1.45c-.61.66-1.1,1.36-1.4,2.09l-.11,3.3c5.51-9.55,21.74-9.97,21.74-9.97ZM191.83,68.66c.21.48.36.97.46,1.48h-.14c-.1-.16-.2-.32-.32-.49v-1ZM187.14,63.95c1.28.7,2.35,1.51,3.19,2.42v1.65c-.84-.75-1.9-1.51-3.19-2.21v-1.87ZM187.14,66.94c1.37.79,2.43,1.63,3.19,2.42v1.88c-.88-.7-1.94-1.47-3.19-2.28v-2.03ZM185.64,68.05c-.14-.08-.27-.17-.42-.25l-1.1-2.28c.54.21,1.04.42,1.52.65v1.88ZM185.64,63.21v1.86c-.66-.3-1.38-.58-2.14-.84l-.82-1.71-3.13-.98v-.07c2.29.4,4.34.98,6.09,1.74ZM173.69,52.75l2.07.5-.17.84c-.62-.18-1.34-.36-1.9-.36-1.17,0,0-.98,0-.98ZM154.7,63.62c1.49-.66,3.32-1.25,5.6-1.72l.3.42.03.36v1.17c-2.33.6-4.29,1.36-5.93,2.16v-2.38ZM154.7,67.15c1.57-.81,3.53-1.61,5.93-2.26v2.04c-.89.3-3.32,1.15-5.93,2.43v-2.21ZM149.81,67.11c.7-.86,1.76-1.83,3.38-2.74v2.43c-1.41.81-2.52,1.64-3.38,2.39v-2.08ZM149.81,70.57c.64-.62,1.49-1.33,2.57-2.06.25-.17.53-.34.81-.52v1.95h.36c-1.32.7-2.62,1.51-3.74,2.4v-1.77ZM148.31,70.67s-.07.08-.1.12c.02-.18.05-.4.1-.66v.54Z"/>
      </g>
      <rect class="cls-2" x="167.43" y="84.21" width="7.62" height="9.19"/>
      <rect class="cls-2" x="168.8" y="186.43" width="9.97" height="10.94"/>
      <rect class="cls-4" x="167.43" y="137.38" width="10.94" height="10.75"/>
      <rect class="cls-4" x="209.65" y="219.27" width="8.21" height="8.4"/>
      <rect class="cls-4" x="207.89" y="240.57" width="7.43" height="20.33"/>
      <rect class="cls-4" x="119.74" y="236.27" width="9.38" height="11.53"/>
      <rect class="cls-4" x="93.16" y="235.68" width="10.94" height="20.72"/>
      <rect class="cls-4" x="69.71" y="235.49" width="8.79" height="11.92"/>
      <rect class="cls-4" x="24.17" y="234.51" width="8.21" height="14.07"/>
      <rect class="cls-4" x="25.93" y="201.29" width="8.99" height="13.88"/>
      <polygon class="cls-4" points="60.52 205 58.18 203.63 58.18 216.14 60.52 216.53 60.52 205"/>
    </g>
    <path class="cls-4" d="M166.56,261.38h12l-.34-23.31s.34-6.17-5.83-5.83c0,0-5.14.34-5.83,5.14v24Z"/>
  </g>
</svg>